# xmcd
#
# Track frame offsets: 
#        150
#        24642
#        52341
#        76363
#        98648
#        117850
#        143517
#        169009
#        192658
#        216263
#        242555
#        264552
#        283849
#        300461
#
# Disc length: 4286 seconds
#
# Revision: 0
# Processed by: cddbd v1.5.2PL0 Copyright (c) Steve Scherf et al.
# Submitted via: ExactAudioCopyFreeDBPlugin 1.0
#
DISCID=c810bc0e
DTITLE=Lauryn Hill - The Miseducation of Lauryn Hill
DYEAR=1998
DGENRE=R&B
TTITLE0=Intro
TTITLE1=Lost Ones
TTITLE2=Ex-Factor
TTITLE3=To Zion
TTITLE4=Doo Wop (That Thing)
TTITLE5=Superstar
TTITLE6=Final Hour
TTITLE7=When It Hurts So Bad
TTITLE8=I Used To Love Him
TTITLE9=Forgive Them Father
TTITLE10=Every Ghetto, Every City
TTITLE11=Nothing Even Matters
TTITLE12=Everything Is Everything
TTITLE13=The Miseducation Of Lauryn Hill
EXTD=
EXTT0=
EXTT1=
EXTT2=
EXTT3=
EXTT4=
EXTT5=
EXTT6=
EXTT7=
EXTT8=
EXTT9=
EXTT10=
EXTT11=
EXTT12=
EXTT13=
PLAYORDER=
